<mxfile host="app.diagrams.net" modified="2024-03-07T08:12:05.337Z" agent="Mozilla/5.0 (Windows NT 10.0; Win64; x64) AppleWebKit/537.36 (KHTML, like Gecko) Chrome/122.0.0.0 Safari/537.36" etag="4wPPFz2Fi_1dXBb7XzGG" version="24.0.1" type="github">
  <diagram name="Page-1" id="TGpV7Wv8woa9MJFDgDpf">
    <mxGraphModel dx="794" dy="446" grid="1" gridSize="10" guides="1" tooltips="1" connect="1" arrows="1" fold="1" page="1" pageScale="1" pageWidth="827" pageHeight="1169" math="0" shadow="0">
      <root>
        <mxCell id="0" />
        <mxCell id="1" parent="0" />
        <mxCell id="_Irbj5H1ekWMQtstCUwH-1" value="STM32" style="whiteSpace=wrap;html=1;aspect=fixed;" vertex="1" parent="1">
          <mxGeometry x="340" y="150" width="80" height="80" as="geometry" />
        </mxCell>
        <mxCell id="_Irbj5H1ekWMQtstCUwH-2" value="&lt;span style=&quot;color: rgb(77, 81, 86); font-family: arial, sans-serif; font-size: 14px; text-align: left; background-color: rgb(255, 255, 255);&quot;&gt;MOS 6581&lt;/span&gt;" style="rounded=0;whiteSpace=wrap;html=1;" vertex="1" parent="1">
          <mxGeometry x="298" y="330" width="164" height="70" as="geometry" />
        </mxCell>
        <mxCell id="_Irbj5H1ekWMQtstCUwH-3" value="GPIO&lt;div&gt;EXPANDER&lt;/div&gt;" style="whiteSpace=wrap;html=1;aspect=fixed;" vertex="1" parent="1">
          <mxGeometry x="530" y="150" width="80" height="80" as="geometry" />
        </mxCell>
        <mxCell id="_Irbj5H1ekWMQtstCUwH-4" value="LED Driver" style="whiteSpace=wrap;html=1;aspect=fixed;" vertex="1" parent="1">
          <mxGeometry x="530" y="250" width="60" height="60" as="geometry" />
        </mxCell>
        <mxCell id="_Irbj5H1ekWMQtstCUwH-5" value="Amplificateur" style="whiteSpace=wrap;html=1;aspect=fixed;" vertex="1" parent="1">
          <mxGeometry x="700" y="410" width="80" height="80" as="geometry" />
        </mxCell>
        <mxCell id="_Irbj5H1ekWMQtstCUwH-6" value="Sélecteur" style="whiteSpace=wrap;html=1;aspect=fixed;" vertex="1" parent="1">
          <mxGeometry x="710" y="100" width="70" height="70" as="geometry" />
        </mxCell>
        <mxCell id="_Irbj5H1ekWMQtstCUwH-7" value="IDO" style="whiteSpace=wrap;html=1;aspect=fixed;" vertex="1" parent="1">
          <mxGeometry x="355" y="40" width="50" height="50" as="geometry" />
        </mxCell>
        <mxCell id="_Irbj5H1ekWMQtstCUwH-8" value="" style="endArrow=classic;startArrow=classic;html=1;rounded=0;entryX=0;entryY=0.5;entryDx=0;entryDy=0;exitX=1;exitY=0.5;exitDx=0;exitDy=0;" edge="1" parent="1" source="_Irbj5H1ekWMQtstCUwH-1" target="_Irbj5H1ekWMQtstCUwH-3">
          <mxGeometry width="50" height="50" relative="1" as="geometry">
            <mxPoint x="380" y="260" as="sourcePoint" />
            <mxPoint x="430" y="210" as="targetPoint" />
          </mxGeometry>
        </mxCell>
        <mxCell id="_Irbj5H1ekWMQtstCUwH-9" value="" style="endArrow=classic;html=1;rounded=0;entryX=0;entryY=0.5;entryDx=0;entryDy=0;" edge="1" parent="1" target="_Irbj5H1ekWMQtstCUwH-7">
          <mxGeometry width="50" height="50" relative="1" as="geometry">
            <mxPoint x="220" y="65" as="sourcePoint" />
            <mxPoint x="270" y="25" as="targetPoint" />
          </mxGeometry>
        </mxCell>
        <mxCell id="_Irbj5H1ekWMQtstCUwH-10" value="" style="endArrow=classic;html=1;rounded=0;entryX=0.5;entryY=0;entryDx=0;entryDy=0;exitX=0.5;exitY=1;exitDx=0;exitDy=0;" edge="1" parent="1" source="_Irbj5H1ekWMQtstCUwH-7" target="_Irbj5H1ekWMQtstCUwH-1">
          <mxGeometry width="50" height="50" relative="1" as="geometry">
            <mxPoint x="230" y="75" as="sourcePoint" />
            <mxPoint x="365" y="75" as="targetPoint" />
          </mxGeometry>
        </mxCell>
        <mxCell id="_Irbj5H1ekWMQtstCUwH-11" value="" style="endArrow=classic;html=1;rounded=0;entryX=0.5;entryY=0;entryDx=0;entryDy=0;" edge="1" parent="1" target="_Irbj5H1ekWMQtstCUwH-3">
          <mxGeometry width="50" height="50" relative="1" as="geometry">
            <mxPoint x="405" y="64.5" as="sourcePoint" />
            <mxPoint x="540" y="64.5" as="targetPoint" />
            <Array as="points">
              <mxPoint x="570" y="65" />
            </Array>
          </mxGeometry>
        </mxCell>
        <mxCell id="_Irbj5H1ekWMQtstCUwH-12" value="" style="endArrow=classic;html=1;rounded=0;entryX=0.5;entryY=0;entryDx=0;entryDy=0;exitX=0.5;exitY=1;exitDx=0;exitDy=0;" edge="1" parent="1" source="_Irbj5H1ekWMQtstCUwH-1" target="_Irbj5H1ekWMQtstCUwH-2">
          <mxGeometry width="50" height="50" relative="1" as="geometry">
            <mxPoint x="250" y="95" as="sourcePoint" />
            <mxPoint x="385" y="95" as="targetPoint" />
          </mxGeometry>
        </mxCell>
        <mxCell id="_Irbj5H1ekWMQtstCUwH-13" value="" style="endArrow=classic;html=1;rounded=0;entryX=0;entryY=0.5;entryDx=0;entryDy=0;" edge="1" parent="1" target="_Irbj5H1ekWMQtstCUwH-4">
          <mxGeometry width="50" height="50" relative="1" as="geometry">
            <mxPoint x="480" y="190" as="sourcePoint" />
            <mxPoint x="440" y="260" as="targetPoint" />
            <Array as="points">
              <mxPoint x="480" y="280" />
            </Array>
          </mxGeometry>
        </mxCell>
        <mxCell id="_Irbj5H1ekWMQtstCUwH-14" value="Bouton" style="rounded=0;whiteSpace=wrap;html=1;" vertex="1" parent="1">
          <mxGeometry x="710" y="180" width="80" height="40" as="geometry" />
        </mxCell>
        <mxCell id="_Irbj5H1ekWMQtstCUwH-15" value="LED" style="rounded=0;whiteSpace=wrap;html=1;" vertex="1" parent="1">
          <mxGeometry x="690" y="280" width="90" height="30" as="geometry" />
        </mxCell>
        <mxCell id="_Irbj5H1ekWMQtstCUwH-17" value="Paramétrique" style="rounded=0;whiteSpace=wrap;html=1;" vertex="1" parent="1">
          <mxGeometry x="480" y="340" width="100" height="50" as="geometry" />
        </mxCell>
        <mxCell id="_Irbj5H1ekWMQtstCUwH-18" value="" style="ellipse;whiteSpace=wrap;html=1;aspect=fixed;" vertex="1" parent="1">
          <mxGeometry x="640" y="345" width="40" height="40" as="geometry" />
        </mxCell>
        <mxCell id="_Irbj5H1ekWMQtstCUwH-19" value="" style="endArrow=classic;html=1;rounded=0;entryX=0;entryY=0.5;entryDx=0;entryDy=0;exitX=1;exitY=0.75;exitDx=0;exitDy=0;" edge="1" parent="1" source="_Irbj5H1ekWMQtstCUwH-4" target="_Irbj5H1ekWMQtstCUwH-15">
          <mxGeometry width="50" height="50" relative="1" as="geometry">
            <mxPoint x="590" y="300" as="sourcePoint" />
            <mxPoint x="530" y="250" as="targetPoint" />
          </mxGeometry>
        </mxCell>
        <mxCell id="_Irbj5H1ekWMQtstCUwH-22" value="" style="endArrow=classic;html=1;rounded=0;exitX=1;exitY=0.75;exitDx=0;exitDy=0;" edge="1" parent="1">
          <mxGeometry width="50" height="50" relative="1" as="geometry">
            <mxPoint x="610" y="210" as="sourcePoint" />
            <mxPoint x="710" y="210" as="targetPoint" />
          </mxGeometry>
        </mxCell>
        <mxCell id="_Irbj5H1ekWMQtstCUwH-24" value="" style="endArrow=classic;html=1;rounded=0;entryX=0;entryY=0.5;entryDx=0;entryDy=0;exitX=1;exitY=0.75;exitDx=0;exitDy=0;" edge="1" parent="1" target="_Irbj5H1ekWMQtstCUwH-6">
          <mxGeometry width="50" height="50" relative="1" as="geometry">
            <mxPoint x="610" y="170" as="sourcePoint" />
            <mxPoint x="710" y="170" as="targetPoint" />
            <Array as="points">
              <mxPoint x="660" y="170" />
              <mxPoint x="660" y="135" />
            </Array>
          </mxGeometry>
        </mxCell>
      </root>
    </mxGraphModel>
  </diagram>
</mxfile>
